<svg width="24" height="24" viewBox="0 0 24 24" fill="none" xmlns="http://www.w3.org/2000/svg">
<path d="M0.300781 4.52578C0.300781 2.19237 2.19237 0.300781 4.52578 0.300781H19.4758C21.8091 0.300781 23.7008 2.19237 23.7008 4.52578V19.4758C23.7008 21.8091 21.8091 23.7008 19.4758 23.7008H4.52578C2.19237 23.7008 0.300781 21.8091 0.300781 19.4758V4.52578ZM12.9758 6.47578C12.9758 5.93731 12.5392 5.50078 12.0008 5.50078C11.4623 5.50078 11.0258 5.93731 11.0258 6.47578V11.0258H6.47578C5.93731 11.0258 5.50078 11.4623 5.50078 12.0008C5.50078 12.5392 5.93731 12.9758 6.47578 12.9758H11.0258V17.5258C11.0258 18.0642 11.4623 18.5008 12.0008 18.5008C12.5392 18.5008 12.9758 18.0642 12.9758 17.5258V12.9758H17.5258C18.0642 12.9758 18.5008 12.5392 18.5008 12.0008C18.5008 11.4623 18.0642 11.0258 17.5258 11.0258H12.9758V6.47578Z" fill="#4E477E"/>
</svg>
