<svg width="24" height="26" viewBox="0 0 24 26" fill="none" xmlns="http://www.w3.org/2000/svg">
<path d="M10.2632 7.3659C10.2632 4.04386 12.8067 1.31593 16.0526 1.02344V7.70499L14.1463 5.79857C13.9201 5.57248 13.5535 5.57248 13.3274 5.79857C13.1014 6.02467 13.1014 6.39124 13.3274 6.61733L16.2221 9.51207C16.4483 9.73816 16.8149 9.73816 17.041 9.51207L19.9357 6.61733C20.1618 6.39124 20.1618 6.02467 19.9357 5.79857C19.7096 5.57248 19.343 5.57248 19.1169 5.79857L17.2105 7.70499V1.02344C20.4563 1.31593 23 4.04386 23 7.3659C23 10.8831 20.1488 13.7343 16.6316 13.7343C13.1144 13.7343 10.2632 10.8831 10.2632 7.3659ZM20.1053 10.8395C20.1053 10.5198 19.846 10.2606 19.5263 10.2606H13.7368C13.4171 10.2606 13.1579 10.5198 13.1579 10.8395C13.1579 11.1593 13.4171 11.4185 13.7368 11.4185H19.5263C19.846 11.4185 20.1053 11.1593 20.1053 10.8395ZM4.76316 4.47112H9.68213C9.4531 5.02015 9.28728 5.60212 9.19373 6.20796H4.76316C3.64405 6.20796 2.73684 7.11517 2.73684 8.23427V9.10269H9.30662C9.45101 9.7138 9.66985 10.2961 9.95307 10.8395H2.73684V16.0501H8.01417C8.45689 16.0501 8.81579 16.4089 8.81579 16.8517V16.9185C8.81579 18.3573 9.98225 19.5238 11.4211 19.5238C12.8599 19.5238 14.0263 18.3573 14.0263 16.9185V16.8517C14.0263 16.4089 14.3853 16.0501 14.8279 16.0501H20.1053V14.0444C20.7433 13.7118 21.3277 13.2905 21.8421 12.7969V21.5501C21.8421 23.6284 20.1573 25.3132 18.0789 25.3132H4.76316C2.68483 25.3132 1 23.6284 1 21.5501V8.23427C1 6.15593 2.68482 4.47112 4.76316 4.47112Z" fill="#4E477E"/>
</svg>
